<svg width="146" height="176" viewBox="0 0 146 176" fill="none" xmlns="http://www.w3.org/2000/svg">
<path d="M57.0351 118.138C57.2989 118.473 57.5082 125.667 57.5077 134.125C57.5829 149.842 57.3054 151.238 54.9155 150.287C54.3844 150.083 53.7237 149.412 53.4621 148.81C53.2666 148.276 53.1233 141.149 53.1867 133.158C53.2759 121.904 53.5037 118.377 54.1728 117.982C55.3778 117.193 56.5759 117.269 57.0351 118.138Z" fill="black"/>
<path d="M41.532 124.808C42.1277 125.279 43.0367 128.216 43.673 131.951C44.2449 135.418 45.275 139.888 45.925 141.891C47.3568 146.098 47.4128 147.43 46.3389 148.487C44.9965 149.809 43.2789 148.064 41.9148 143.724C40.2241 138.583 37.9874 126.711 38.463 125.516C38.9392 124.255 40.4068 123.933 41.532 124.808Z" fill="black"/>
<path d="M53.9432 1.96374C59.7224 3.80766 65.6073 9.11538 68.0934 14.7291C69.7281 18.538 70.0458 20.4718 72.0156 40.7991C72.1995 42.7984 72.4442 45.5308 72.5674 46.7971C72.6905 48.0633 72.8771 49.7297 72.8713 50.4622C72.922 52.4605 78.0215 39.2484 81.4387 28.2207C84.5833 17.9899 85.5969 16.1333 89.1453 13.764C94.0994 10.4735 103.337 12.8776 108.086 18.7091C112.042 23.6685 113.278 27.3411 113.225 34.1334C113.182 39.5273 112.833 41.4558 109.348 52.7494C104.356 69.0923 101.678 79.3934 99.934 89.3023C98.3295 98.4797 97.4021 106.264 97.9348 106.268C98.1346 106.27 100.476 104.957 103.219 103.313C117.138 94.833 129.722 95.2657 137.972 104.655C141.536 108.679 144.944 115.565 144.919 118.695C144.868 125.154 135.837 130.277 119.901 132.748C116.567 133.321 113.166 133.893 112.366 134.02C111.565 134.213 106.873 138.039 101.975 142.595C97.0778 147.151 92.1828 151.374 91.1787 152.032C89.6397 152.953 89.3696 153.417 89.8247 154.819C91.3151 160.025 89.3448 164.937 84.0498 169.224C78.6882 173.51 73.6832 174.803 61.228 175.037C46.0415 175.382 38.6668 173.193 32.6587 166.619C29.754 163.399 28.9137 160.196 30.0061 156.808C30.8237 154.484 30.7576 154.417 26.7949 150.256C19.7277 142.875 13.7603 131.173 11.3196 119.833C10.354 115.63 10.1886 111.3 10.2281 97.9142C10.3015 80.267 9.68099 74.5348 5.76891 55.5907C0.318841 29.0424 0.38121 29.5757 2.47776 25.53C4.23554 22.2141 7.31405 20.3073 11.0432 20.3369C14.9721 20.368 17.891 21.7897 21.7248 25.4162C24.2362 27.8336 25.4201 29.7077 27.1177 33.9832C29.9885 41.4647 36.0119 54.4986 36.6113 54.5034C37.0774 54.5071 36.7972 39.4542 36.0826 20.4022C35.6291 10.4093 36.0445 8.41475 39.2012 5.04341C40.1419 3.98534 41.7501 2.73278 42.7532 2.20797C44.6923 1.22442 51.1533 1.07587 53.9432 1.96374ZM43.2464 7.20655C40.5674 9.11657 39.8724 12.7738 40.4676 21.7023C41.4295 34.7627 40.9672 59.466 39.7813 66.2493C37.9036 76.2903 32.4633 90.4986 33.526 82.449C33.739 80.7858 34.3108 75.8623 34.8118 71.4709L35.6748 63.4197L29.7788 51.1194C26.5031 44.3007 23.2961 37.2161 22.711 35.4134C20.4971 29.0693 16.1343 24.9723 11.3407 24.8011C8.47784 24.7118 5.79359 27.2878 5.77088 30.1512C5.75503 32.1489 7.0293 39.4179 10.489 56.627C14.5892 77.0378 14.8995 79.9038 14.8869 98.2841C14.8272 114.2 14.9488 115.666 16.5 121.605C20.2482 136.02 30.19 150.417 39.1481 154.483C42.9301 156.245 52.5737 157.853 59.2994 157.906C75.6814 157.97 82.098 155.024 98.4693 139.637C107.863 130.788 109.335 129.934 116.536 128.858C130.604 126.706 139.624 122.981 140.121 119.123C140.405 116.861 137.128 110.308 134.024 107.021C126.297 98.7681 114.231 100.337 98.7593 111.469C94.0038 114.895 93.2766 114.223 93.5429 105.834C93.9096 93.1836 97.097 77.559 104.484 53.0438C110.23 33.8432 110.332 29.3822 105.522 22.9508C101.436 17.4576 96.4582 15.3537 92.3142 17.2521C89.3731 18.6272 88.6977 19.8206 86.2344 28.1255C85.0712 32.0454 82.0054 40.7451 79.421 47.5174C76.8367 54.2896 73.7762 62.3234 72.6193 65.4442C70.3727 71.6198 67.124 78.187 63.9551 83.0899C61.5272 86.9332 61.3998 86.1996 63.6427 80.4902C64.5274 78.0998 66.0992 73.051 67.1282 69.2632C69.1195 61.6871 69.138 59.3564 67.2342 39.0963C65.5197 20.1695 65.2644 18.769 63.2286 15.1567C58.8959 7.26407 48.8051 3.2549 43.2464 7.20655ZM71.3609 56.1775C71.6759 58.4442 72.4105 58.1836 73.3644 55.4608C73.9764 53.8674 73.9135 53.4007 72.9855 52.8606C71.5934 52.0504 70.9835 53.3774 71.3609 56.1775ZM36.2683 55.7659C35.5987 56.2268 35.5289 56.6258 36.1193 57.7626C37.1044 59.5019 38.1735 59.0442 38.1915 56.7801C38.2047 55.1153 37.7407 54.8453 36.2683 55.7659ZM81.5393 158.283C75.9224 161.168 70.1877 162.122 59.6662 162.038C49.6775 161.959 41.5634 160.629 37.2524 158.397C34.5998 156.978 34.0655 157.174 34.047 159.504C34.0159 163.433 39.3754 167.804 46.4204 169.592C49.4112 170.348 53.6038 170.714 58.9311 170.756C72.7161 170.799 80.4613 168.263 84.2363 162.499C85.8535 160.115 86.7541 155.727 85.4846 156.249C85.2172 156.38 83.4118 157.298 81.5393 158.283Z" fill="black"/>
<path d="M72.8485 128.912C73.3759 129.582 73.2951 131.379 72.5943 135.769C72.0357 139.028 71.3994 143.684 71.1129 146.213C70.7541 149.473 70.3435 150.868 69.4746 151.261C67.2676 152.442 66.413 151.037 66.6487 146.51C66.9615 140.652 68.7779 129.945 69.7187 128.887C70.6599 127.762 71.9252 127.772 72.8485 128.912Z" fill="black"/>
<path d="M38.4267 54.2954L35.4149 55.7716L35.9149 55.7755L36.3831 59.7794L38.3831 59.7952L38.4267 54.2954Z" fill="black"/>
<path d="M73.9454 52.077L70.9455 52.0532C70.7749 52.5519 70.4328 53.6492 70.4296 54.0492C70.4257 54.5492 70.9098 56.5531 70.9058 57.0531C70.9027 57.4531 71.5659 57.8917 71.8979 58.061L73.3978 58.0729L74.4295 54.0809L73.9454 52.077Z" fill="black"/>
<path d="M38.4505 51.2955L38.5298 41.2958M57.0351 118.138C57.2989 118.473 57.5082 125.667 57.5077 134.125C57.5829 149.842 57.3054 151.238 54.9155 150.287C54.3844 150.083 53.7237 149.412 53.4621 148.81C53.2666 148.276 53.1233 141.149 53.1867 133.158C53.2759 121.904 53.5037 118.377 54.1728 117.982C55.3778 117.193 56.5759 117.269 57.0351 118.138ZM41.532 124.808C42.1277 125.279 43.0367 128.216 43.673 131.951C44.2449 135.418 45.275 139.888 45.925 141.891C47.3568 146.098 47.4128 147.43 46.3389 148.487C44.9965 149.809 43.2789 148.064 41.9148 143.724C40.2241 138.583 37.9874 126.711 38.463 125.516C38.9392 124.255 40.4068 123.933 41.532 124.808ZM53.9432 1.96374C59.7224 3.80766 65.6073 9.11538 68.0934 14.7291C69.7281 18.538 70.0458 20.4718 72.0156 40.7991C72.1995 42.7984 72.4442 45.5308 72.5674 46.7971C72.6905 48.0633 72.8771 49.7297 72.8713 50.4622C72.922 52.4605 78.0215 39.2484 81.4387 28.2207C84.5833 17.9899 85.5969 16.1333 89.1453 13.764C94.0994 10.4735 103.337 12.8776 108.086 18.7091C112.042 23.6685 113.278 27.3411 113.225 34.1334C113.182 39.5273 112.833 41.4558 109.348 52.7494C104.356 69.0923 101.678 79.3934 99.934 89.3023C98.3295 98.4797 97.4021 106.264 97.9348 106.268C98.1346 106.27 100.476 104.957 103.219 103.313C117.138 94.833 129.722 95.2657 137.972 104.655C141.536 108.679 144.944 115.565 144.919 118.695C144.868 125.154 135.837 130.277 119.901 132.748C116.567 133.321 113.166 133.893 112.366 134.02C111.565 134.213 106.873 138.039 101.975 142.595C97.0778 147.151 92.1828 151.374 91.1787 152.032C89.6397 152.953 89.3696 153.417 89.8247 154.819C91.3151 160.025 89.3448 164.937 84.0498 169.224C78.6882 173.51 73.6832 174.803 61.228 175.037C46.0415 175.382 38.6668 173.193 32.6587 166.619C29.754 163.399 28.9137 160.196 30.0061 156.808C30.8237 154.484 30.7576 154.417 26.7949 150.256C19.7277 142.875 13.7603 131.173 11.3196 119.833C10.354 115.63 10.1886 111.3 10.2281 97.9142C10.3015 80.267 9.68099 74.5348 5.76891 55.5907C0.318841 29.0424 0.38121 29.5757 2.47776 25.53C4.23554 22.2141 7.31405 20.3073 11.0432 20.3369C14.9721 20.368 17.891 21.7897 21.7248 25.4162C24.2362 27.8336 25.4201 29.7077 27.1177 33.9832C29.9885 41.4647 36.0119 54.4986 36.6113 54.5034C37.0774 54.5071 36.7972 39.4542 36.0826 20.4022C35.6291 10.4093 36.0445 8.41475 39.2012 5.04341C40.1419 3.98534 41.7501 2.73278 42.7532 2.20797C44.6923 1.22442 51.1533 1.07587 53.9432 1.96374ZM43.2464 7.20655C40.5674 9.11657 39.8724 12.7738 40.4676 21.7023C41.4295 34.7627 40.9672 59.466 39.7813 66.2493C37.9036 76.2903 32.4633 90.4986 33.526 82.449C33.739 80.7858 34.3108 75.8623 34.8118 71.4709L35.6748 63.4197L29.7788 51.1194C26.5031 44.3007 23.2961 37.2161 22.711 35.4134C20.4971 29.0693 16.1343 24.9723 11.3407 24.8011C8.47784 24.7118 5.79359 27.2878 5.77088 30.1512C5.75503 32.1489 7.0293 39.4179 10.489 56.627C14.5892 77.0378 14.8995 79.9038 14.8869 98.2841C14.8272 114.2 14.9488 115.666 16.5 121.605C20.2482 136.02 30.19 150.417 39.1481 154.483C42.9301 156.245 52.5737 157.853 59.2994 157.906C75.6814 157.97 82.098 155.024 98.4693 139.637C107.863 130.788 109.335 129.934 116.536 128.858C130.604 126.706 139.624 122.981 140.121 119.123C140.405 116.861 137.128 110.308 134.024 107.021C126.297 98.7681 114.231 100.337 98.7593 111.469C94.0038 114.895 93.2766 114.223 93.5429 105.834C93.9096 93.1836 97.097 77.559 104.484 53.0438C110.23 33.8432 110.332 29.3822 105.522 22.9508C101.436 17.4576 96.4582 15.3537 92.3142 17.2521C89.3731 18.6272 88.6977 19.8206 86.2344 28.1255C85.0712 32.0454 82.0054 40.7451 79.421 47.5174C76.8367 54.2896 73.7762 62.3234 72.6193 65.4442C70.3727 71.6198 67.124 78.187 63.9551 83.0899C61.5272 86.9332 61.3998 86.1996 63.6427 80.4902C64.5274 78.0998 66.0992 73.051 67.1282 69.2632C69.1195 61.6871 69.138 59.3564 67.2342 39.0963C65.5197 20.1695 65.2644 18.769 63.2286 15.1567C58.8959 7.26407 48.8051 3.2549 43.2464 7.20655ZM71.3609 56.1775C71.6759 58.4442 72.4105 58.1836 73.3644 55.4608C73.9764 53.8674 73.9135 53.4007 72.9855 52.8606C71.5934 52.0504 70.9835 53.3774 71.3609 56.1775ZM36.2683 55.7659C35.5987 56.2268 35.5289 56.6258 36.1193 57.7626C37.1044 59.5019 38.1735 59.0442 38.1915 56.7801C38.2047 55.1153 37.7407 54.8453 36.2683 55.7659ZM81.5393 158.283C75.9224 161.168 70.1877 162.122 59.6662 162.038C49.6775 161.959 41.5634 160.629 37.2524 158.397C34.5998 156.978 34.0655 157.174 34.047 159.504C34.0159 163.433 39.3754 167.804 46.4204 169.592C49.4112 170.348 53.6038 170.714 58.9311 170.756C72.7161 170.799 80.4613 168.263 84.2363 162.499C85.8535 160.115 86.7541 155.727 85.4846 156.249C85.2172 156.38 83.4118 157.298 81.5393 158.283ZM72.8485 128.912C73.3759 129.582 73.2951 131.379 72.5943 135.769C72.0357 139.028 71.3994 143.684 71.1129 146.213C70.7541 149.473 70.3435 150.868 69.4746 151.261C67.2676 152.442 66.413 151.037 66.6487 146.51C66.9615 140.652 68.7779 129.945 69.7187 128.887C70.6599 127.762 71.9252 127.772 72.8485 128.912ZM35.4149 55.7716L38.4267 54.2954L38.3831 59.7952L36.3831 59.7794L35.9149 55.7755L35.4149 55.7716ZM70.9455 52.0532L73.9454 52.077L74.4295 54.0809L73.3978 58.0729L71.8979 58.061C71.5659 57.8917 70.9027 57.4531 70.9058 57.0531C70.9098 56.5531 70.4257 54.5492 70.4296 54.0492C70.4328 53.6492 70.7749 52.5519 70.9455 52.0532Z" stroke="black"/>
</svg>
