<?xml version="1.0" standalone="no"?>
<!DOCTYPE svg PUBLIC "-//W3C//DTD SVG 20010904//EN"
 "http://www.w3.org/TR/2001/REC-SVG-20010904/DTD/svg10.dtd">
<svg version="1.0" xmlns="http://www.w3.org/2000/svg"
 width="300.000000pt" height="300.000000pt" viewBox="0 0 300.000000 300.000000"
 preserveAspectRatio="xMidYMid meet">
<metadata>
Created by potrace 1.10, written by Peter Selinger 2001-2011
</metadata>
<g transform="translate(0.000000,300.000000) scale(0.100000,-0.100000)"
fill="#000000" stroke="none">
<path d="M1670 2831 c-87 -27 -176 -106 -214 -190 -25 -57 -30 -86 -62 -391
-3 -30 -7 -71 -9 -90 -2 -19 -5 -44 -5 -55 -1 -30 -76 169 -126 335 -46 154
-61 182 -114 218 -74 50 -213 15 -285 -72 -60 -74 -79 -129 -79 -231 0 -81 5
-110 56 -280 73 -246 112 -401 137 -550 23 -138 36 -255 28 -255 -3 0 -38 20
-79 45 -208 129 -397 124 -522 -16 -54 -60 -106 -163 -106 -210 0 -97 135
-175 374 -214 50 -9 101 -18 113 -20 12 -3 82 -61 155 -130 73 -69 146 -133
161 -143 23 -14 27 -21 20 -42 -23 -78 6 -152 85 -217 80 -65 155 -85 342 -90
228 -7 339 25 430 123 44 48 57 96 41 147 -12 35 -11 36 49 98 107 110 198
285 236 455 15 63 18 128 19 329 1 265 11 351 72 635 85 398 84 390 53 451
-26 50 -72 79 -128 79 -59 0 -103 -21 -161 -75 -38 -36 -56 -64 -82 -128 -44
-112 -136 -307 -145 -307 -7 0 -1 226 12 512 8 150 2 180 -45 231 -14 16 -38
35 -53 43 -29 15 -126 18 -168 5z m160 -80 c40 -29 50 -84 40 -218 -16 -196
-12 -567 5 -669 27 -151 107 -365 92 -244 -3 25 -11 99 -18 165 l-12 121 90
184 c50 102 99 208 108 235 34 95 100 156 172 158 43 1 83 -38 83 -81 0 -30
-20 -139 -74 -397 -64 -306 -69 -349 -71 -625 -1 -239 -3 -261 -27 -350 -58
-216 -209 -431 -344 -491 -57 -26 -202 -49 -303 -49 -246 1 -342 46 -586 279
-140 134 -162 147 -270 164 -211 34 -346 91 -353 149 -4 34 46 132 93 181 117
123 298 98 529 -71 71 -52 82 -42 79 84 -4 190 -50 425 -158 794 -84 289 -85
356 -12 452 62 82 137 113 199 84 44 -21 54 -39 90 -164 17 -59 62 -190 100
-292 38 -102 83 -223 100 -270 33 -93 81 -192 128 -266 36 -58 38 -47 5 39
-13 36 -36 112 -51 169 -29 114 -29 149 2 453 28 284 32 305 63 359 66 118
218 177 301 117z m-428 -732 c-5 -34 -16 -30 -30 11 -9 24 -8 31 6 39 21 12
30 -8 24 -50z m527 2 c10 -7 11 -13 2 -30 -15 -26 -31 -19 -31 15 0 25 7 29
29 15z m-692 -1534 c84 -44 170 -59 328 -59 150 0 272 19 337 52 40 21 48 18
48 -17 0 -59 -81 -124 -187 -150 -45 -11 -108 -16 -188 -16 -207 1 -323 40
-379 127 -24 36 -37 102 -18 94 4 -2 31 -16 59 -31z"/>
<path d="M1605 1089 c-4 -5 -8 -113 -9 -240 -3 -236 1 -257 37 -243 8 3 18 13
22 22 3 8 6 115 6 235 0 169 -3 222 -13 228 -18 12 -36 11 -43 -2z"/>
<path d="M1837 987 c-9 -7 -23 -51 -33 -107 -9 -52 -25 -119 -35 -149 -22 -63
-23 -83 -7 -99 20 -20 46 6 67 71 26 77 61 255 54 273 -7 19 -29 24 -46 11z"/>
<path d="M1371 927 c-8 -10 -7 -37 3 -103 8 -49 17 -119 21 -157 5 -49 11 -70
24 -76 33 -18 46 3 43 71 -4 88 -30 249 -44 265 -14 17 -33 17 -47 0z"/>
</g>
</svg>
