<?xml version="1.0" standalone="no"?>
<!DOCTYPE svg PUBLIC "-//W3C//DTD SVG 20010904//EN"
 "http://www.w3.org/TR/2001/REC-SVG-20010904/DTD/svg10.dtd">
<svg version="1.0" xmlns="http://www.w3.org/2000/svg"
 width="300.000000pt" height="300.000000pt" viewBox="0 0 300.000000 300.000000"
 preserveAspectRatio="xMidYMid meet">
<metadata>
Created by potrace 1.10, written by Peter Selinger 2001-2011
</metadata>
<g transform="translate(0.000000,300.000000) scale(0.100000,-0.100000)"
fill="#000000" stroke="none">
<path d="M1198 2577 c-84 -24 -159 -84 -198 -158 -19 -35 -21 -37 -82 -41
-136 -8 -251 -113 -320 -291 -56 -144 -94 -415 -85 -601 17 -332 136 -615 347
-826 62 -62 75 -81 68 -94 -19 -33 -12 -122 12 -160 45 -74 165 -150 270 -172
58 -13 233 -18 335 -11 175 12 307 57 406 139 72 60 112 187 78 250 -7 13 -4
22 12 35 146 119 295 321 371 503 58 140 72 202 72 330 1 102 -2 124 -27 190
-15 41 -32 77 -37 78 -6 2 -10 10 -10 18 0 24 -122 139 -191 180 l-67 39 16
30 c12 21 16 57 17 121 0 85 -2 96 -35 159 -92 179 -304 239 -464 130 -43 -29
-46 -30 -46 -9 0 30 -103 120 -165 144 -73 28 -207 36 -277 17z m222 -85 c82
-27 133 -72 150 -135 9 -32 7 -50 -13 -115 -34 -104 -44 -169 -46 -282 -1 -66
2 -91 9 -80 5 8 10 22 10 32 0 16 48 169 90 283 41 113 97 170 192 193 98 25
196 -18 255 -111 38 -60 44 -179 14 -257 -29 -74 -36 -124 -36 -255 1 -142 19
-196 107 -333 37 -58 68 -110 68 -115 0 -6 3 -8 6 -5 3 3 -9 39 -27 79 -62
146 -71 184 -74 329 -2 74 0 145 3 157 7 22 8 22 61 -12 141 -89 212 -213 214
-375 1 -71 -18 -193 -33 -215 -4 -5 -10 -22 -14 -37 -24 -101 -159 -318 -268
-430 -164 -170 -301 -237 -519 -256 -204 -18 -403 3 -504 53 -60 29 -198 158
-252 235 -98 137 -169 311 -198 486 -22 126 -22 347 0 479 42 259 124 423 240
476 40 19 105 26 105 12 0 -5 -7 -48 -15 -98 -16 -96 -19 -257 -6 -290 7 -15
11 -6 20 40 7 33 20 89 30 125 17 57 25 90 46 185 20 91 42 143 74 175 25 25
89 62 125 71 47 12 136 7 186 -9z m238 -123 c10 -3 8 -12 -9 -33 -21 -27 -23
-27 -30 -10 -4 10 -8 29 -8 42 -1 18 2 21 17 14 9 -5 23 -11 30 -13z m-644
-26 c-9 -39 -19 -46 -35 -27 -12 14 -10 19 10 35 30 25 33 24 25 -8z m1125
-384 c14 -23 13 -24 -32 -50 -17 -10 -18 -8 -12 23 12 55 22 61 44 27z m-147
-1338 l-4 -39 -25 21 -24 22 21 17 c32 26 36 23 32 -21z m-982 -40 c0 -4 -9
-16 -20 -26 -20 -18 -20 -17 -20 19 0 34 2 36 20 26 11 -6 20 -14 20 -19z
m950 -18 c0 -79 -73 -168 -167 -203 -114 -43 -181 -53 -353 -54 -220 -1 -301
20 -397 108 -33 29 -51 81 -39 111 5 14 10 13 43 -4 79 -40 187 -56 378 -55
216 0 351 24 450 79 69 39 85 42 85 18z"/>
<path d="M1340 1275 c-10 -12 -11 -63 -6 -231 4 -118 9 -220 11 -227 2 -7 6
-32 9 -57 7 -64 15 -80 42 -80 37 0 44 27 34 126 -5 49 -10 169 -11 266 -1
135 -5 183 -16 198 -17 24 -46 26 -63 5z"/>
<path d="M1075 1140 c-15 -17 -15 -26 -1 -108 16 -94 78 -295 98 -319 14 -18
48 -13 62 9 8 13 1 44 -26 130 -21 62 -42 147 -49 188 -7 41 -16 82 -20 91
-13 25 -46 29 -64 9z"/>
<path d="M1640 1090 c-18 -11 -47 -228 -46 -339 1 -66 3 -75 23 -82 13 -5 27
-3 37 4 15 12 18 32 31 210 3 42 10 100 15 128 6 29 10 53 10 55 0 1 -7 10
-16 18 -18 18 -32 20 -54 6z"/>
</g>
</svg>
