<svg width="119" height="143" viewBox="0 0 119 143" fill="none" xmlns="http://www.w3.org/2000/svg">
<path d="M50.1327 78.9442C49.5395 79.656 49.4802 82.6811 49.7768 92.6462C50.0141 99.6456 50.3107 105.696 50.4293 106.111C50.5479 106.526 50.7852 108.009 50.9631 109.492C51.3783 113.288 51.8529 114.237 53.4544 114.237C55.6491 114.237 56.0643 112.636 55.4712 106.763C55.1746 103.857 54.878 96.7391 54.8187 90.9854C54.7594 82.9777 54.5221 80.1305 53.8696 79.2408C52.8613 77.8172 51.1411 77.6986 50.1327 78.9442Z" fill="black"/>
<path d="M34.4139 86.9519C33.5242 87.9603 33.5242 88.4941 34.3546 93.3581C35.3037 98.9338 38.9813 110.856 40.1676 112.28C40.998 113.348 43.0148 113.051 43.8452 111.746C44.3197 110.975 43.9045 109.136 42.303 104.035C41.0573 100.357 39.8117 95.3155 39.3965 92.8835C38.9813 90.4516 38.4474 88.0196 38.2101 87.4858C37.439 86.0029 35.4816 85.7656 34.4139 86.9519Z" fill="black"/>
<path d="M67.9276 89.9177C66.8599 90.5702 65.1397 103.442 65.199 110.026C65.2583 113.941 65.377 114.475 66.5633 114.89C67.3344 115.186 68.1648 115.068 68.758 114.653C69.6477 113.941 69.8257 112.754 70.5968 102.196C70.7747 99.7049 71.19 96.2645 71.4865 94.6037C71.8424 92.8835 72.0797 91.4599 72.0797 91.3413C72.0797 91.282 71.6645 90.7481 71.1306 90.2736C70.0629 89.2059 69.2325 89.0873 67.9276 89.9177Z" fill="black"/>
<path d="M41.7098 1.7146C36.7273 3.13819 32.2785 6.69716 29.9652 11.0866C28.8382 13.1626 28.7196 13.2812 25.1013 13.5185C17.0343 13.993 10.2129 20.2212 6.12012 30.7795C2.79842 39.321 0.544405 55.3957 1.07825 66.4285C2.08662 86.1215 9.14525 102.908 21.661 115.424C25.3386 119.101 26.1097 120.228 25.6945 120.999C24.5674 122.957 24.9827 128.236 26.4062 130.49C29.0755 134.879 36.1934 139.387 42.4216 140.692C45.8619 141.463 56.2423 141.76 62.2925 141.345C72.6728 140.633 80.5026 137.964 86.3749 133.1C90.6456 129.541 93.0183 122.008 91.0015 118.271C90.5863 117.5 90.7643 116.966 91.7133 116.195C100.373 109.136 109.212 97.1543 113.72 86.3587C117.16 78.0545 117.99 74.3769 117.99 66.7844C118.05 60.7342 117.872 59.4292 116.389 55.5143C115.499 53.0824 114.491 50.947 114.194 50.8877C113.838 50.769 113.601 50.2945 113.601 49.82C113.601 48.3964 106.364 41.575 102.272 39.1431L98.2974 36.8298L99.2465 35.0503C99.9583 33.8046 100.196 31.6692 100.255 27.873C100.255 22.8311 100.136 22.1787 98.1788 18.4418C92.7217 7.82416 80.1467 4.26519 70.6561 10.7307C68.1055 12.4508 67.9276 12.5101 67.9276 11.2645C67.9276 9.48502 61.818 4.14656 58.1404 2.72298C53.8103 1.06212 45.8619 0.587594 41.7098 1.7146ZM54.878 6.75647C59.7419 8.35801 62.767 11.0272 63.7754 14.7642C64.3093 16.6623 64.1906 17.73 63.0043 21.5855C60.9876 27.7544 60.3944 31.6099 60.2758 38.3127C60.2165 42.2275 60.3944 43.7104 60.8096 43.0579C61.1062 42.5834 61.4028 41.753 61.4028 41.1598C61.4028 40.2108 64.25 31.1354 66.7412 24.3734C69.1732 17.6706 72.4949 14.2896 78.1299 12.9254C83.9429 11.4424 89.7559 13.993 93.2555 19.5094C95.5096 23.0684 95.8655 30.127 94.086 34.7537C92.3658 39.1431 91.9506 42.1089 91.9506 49.8793C92.0099 58.3022 93.0776 61.5053 98.2974 69.6316C100.492 73.0719 102.331 76.1564 102.331 76.4529C102.331 76.8088 102.509 76.9275 102.687 76.7495C102.865 76.5716 102.153 74.4362 101.085 72.0635C97.4077 63.4034 96.8738 61.1494 96.6959 52.5485C96.5773 48.1591 96.6959 43.9477 96.8738 43.2359C97.289 41.9309 97.3484 41.9309 100.492 43.9477C108.856 49.2268 113.067 56.582 113.186 66.1912C113.245 70.4027 112.118 77.6393 111.228 78.9442C110.991 79.2408 110.635 80.2492 110.398 81.1389C108.974 87.1298 100.967 100.001 94.5012 106.645C84.7733 116.729 76.647 120.703 63.7161 121.83C51.6156 122.897 39.8117 121.652 33.8208 118.686C30.2618 116.966 22.0762 109.314 18.8731 104.747C13.0601 96.6204 8.84867 86.2994 7.1285 75.9191C5.82354 68.4452 5.82354 55.3364 7.1285 47.5067C9.61978 32.1438 14.4837 22.4159 21.3644 19.2722C23.737 18.1452 27.5926 17.73 27.5926 18.5604C27.5926 18.857 27.1774 21.4076 26.7028 24.3734C25.7538 30.0677 25.5758 39.6176 26.3469 41.575C26.7621 42.4648 26.9994 41.9309 27.5333 39.2024C27.9485 37.245 28.7196 33.9233 29.3127 31.7879C30.3211 28.4069 30.7956 26.4494 32.0413 20.8144C33.2276 15.4166 34.5326 12.3322 36.4307 10.4341C37.9136 8.95117 41.7098 6.75647 43.8452 6.22263C46.6331 5.51083 51.9122 5.80741 54.878 6.75647ZM68.9952 14.0524C69.5884 14.2303 69.4698 14.7642 68.4614 16.0098C67.2158 17.6113 67.0971 17.6113 66.6819 16.603C66.4446 16.0098 66.2074 14.8828 66.2074 14.1117C66.1481 13.044 66.326 12.866 67.2158 13.2812C67.7496 13.5778 68.58 13.9337 68.9952 14.0524ZM30.7956 15.5946C30.2618 17.9079 29.6686 18.3231 28.7196 17.1961C28.0078 16.3657 28.1264 16.0691 29.3127 15.12C31.0922 13.6371 31.2702 13.6965 30.7956 15.5946ZM97.5263 38.372C98.3567 39.7362 98.2974 39.7956 95.6282 41.3378C94.6198 41.9309 94.5605 41.8123 94.9164 39.9735C95.6282 36.7111 96.2214 36.3552 97.5263 38.372ZM88.8068 117.737L88.5696 120.05L87.0867 118.805L85.6631 117.5L86.9087 116.491C88.8068 114.949 89.0441 115.127 88.8068 117.737ZM30.5584 120.11C30.5584 120.347 30.0245 121.059 29.3721 121.652C28.1857 122.72 28.1857 122.66 28.1857 120.525C28.1857 118.508 28.3044 118.389 29.3721 118.983C30.0245 119.339 30.5584 119.813 30.5584 120.11ZM86.9087 121.177C86.9087 125.863 82.5786 131.142 77.0029 133.218C70.2409 135.769 66.2667 136.362 56.0643 136.422C43.0148 136.481 38.2102 135.235 32.5158 130.015C30.5584 128.295 29.4907 125.211 30.2025 123.431C30.4991 122.601 30.7956 122.66 32.7531 123.669C37.4391 126.041 43.8452 126.99 55.1746 126.931C67.9869 126.931 75.9946 125.507 81.8669 122.245C85.9597 119.932 86.9087 119.754 86.9087 121.177Z" fill="black"/>
<path d="M65.5063 12.2221C65.877 12.3704 67.3303 12.9339 70.1775 14.0016L69.5101 16.4484L65.9512 19.1176C65.8029 18.6727 65.5063 17.4271 65.5063 16.0035V12.2221Z" fill="black"/>
<path d="M30.1391 14.0016L28.3596 15.3362L27.6923 16.4484L28.3596 17.783L30.1391 18.2279L31.4737 15.1138L31.0288 13.7792L30.1391 14.0016Z" fill="black"/>
<path d="M28.3596 118.101L28.1371 119.214L27.9147 119.658V122.105C27.9147 122.283 28.063 122.773 28.1371 122.995C28.6562 122.698 29.7387 122.061 29.9166 121.883C30.1391 121.66 31.0288 120.993 31.0288 120.548C31.0288 120.192 30.8805 119.807 30.8064 119.658L29.6942 118.546L28.3596 118.101Z" fill="black"/>
<path d="M96.2024 36.2452L95.5351 37.3573L94.4229 40.6939V42.0285L96.2024 41.5836L98.6492 40.249L97.537 38.2471L96.2024 36.2452Z" fill="black"/>
<path d="M88.6396 114.765L86.4153 115.877L84.8582 117.434L85.9704 118.991L88.6396 120.771L89.3069 116.767L88.6396 114.765Z" fill="black"/>
<path d="M50.1327 78.9442C49.5395 79.656 49.4802 82.6811 49.7768 92.6462C50.0141 99.6456 50.3107 105.696 50.4293 106.111C50.5479 106.526 50.7852 108.009 50.9631 109.492C51.3783 113.288 51.8529 114.237 53.4544 114.237C55.6491 114.237 56.0643 112.636 55.4712 106.763C55.1746 103.857 54.878 96.7391 54.8187 90.9854C54.7594 82.9777 54.5221 80.1305 53.8696 79.2408C52.8613 77.8172 51.1411 77.6986 50.1327 78.9442Z" stroke="black"/>
<path d="M34.4139 86.9519C33.5242 87.9603 33.5242 88.4941 34.3546 93.3581C35.3037 98.9338 38.9813 110.856 40.1676 112.28C40.998 113.348 43.0148 113.051 43.8452 111.746C44.3197 110.975 43.9045 109.136 42.303 104.035C41.0573 100.357 39.8117 95.3155 39.3965 92.8835C38.9813 90.4516 38.4474 88.0196 38.2101 87.4858C37.439 86.0029 35.4816 85.7656 34.4139 86.9519Z" stroke="black"/>
<path d="M67.9276 89.9177C66.8599 90.5702 65.1397 103.442 65.199 110.026C65.2583 113.941 65.377 114.475 66.5633 114.89C67.3344 115.186 68.1648 115.068 68.758 114.653C69.6477 113.941 69.8257 112.754 70.5968 102.196C70.7747 99.7049 71.19 96.2645 71.4865 94.6037C71.8424 92.8835 72.0797 91.4599 72.0797 91.3413C72.0797 91.282 71.6645 90.7481 71.1306 90.2736C70.0629 89.2059 69.2325 89.0873 67.9276 89.9177Z" stroke="black"/>
<path d="M41.7098 1.7146C36.7273 3.13819 32.2785 6.69716 29.9652 11.0866C28.8382 13.1626 28.7196 13.2812 25.1013 13.5185C17.0343 13.993 10.2129 20.2212 6.12012 30.7795C2.79842 39.321 0.544405 55.3957 1.07825 66.4285C2.08662 86.1215 9.14525 102.908 21.661 115.424C25.3386 119.101 26.1097 120.228 25.6945 120.999C24.5674 122.957 24.9827 128.236 26.4062 130.49C29.0755 134.879 36.1934 139.387 42.4216 140.692C45.8619 141.463 56.2423 141.76 62.2925 141.345C72.6728 140.633 80.5026 137.964 86.3749 133.1C90.6456 129.541 93.0183 122.008 91.0015 118.271C90.5863 117.5 90.7643 116.966 91.7133 116.195C100.373 109.136 109.212 97.1543 113.72 86.3587C117.16 78.0545 117.99 74.3769 117.99 66.7844C118.05 60.7342 117.872 59.4292 116.389 55.5143C115.499 53.0824 114.491 50.947 114.194 50.8877C113.838 50.769 113.601 50.2945 113.601 49.82C113.601 48.3964 106.364 41.575 102.272 39.1431L98.2974 36.8298L99.2465 35.0503C99.9583 33.8046 100.196 31.6692 100.255 27.873C100.255 22.8311 100.136 22.1787 98.1788 18.4418C92.7217 7.82416 80.1467 4.26519 70.6561 10.7307C68.1055 12.4508 67.9276 12.5101 67.9276 11.2645C67.9276 9.48502 61.818 4.14656 58.1404 2.72298C53.8103 1.06212 45.8619 0.587594 41.7098 1.7146ZM54.878 6.75647C59.7419 8.35801 62.767 11.0272 63.7754 14.7642C64.3093 16.6623 64.1906 17.73 63.0043 21.5855C60.9876 27.7544 60.3944 31.6099 60.2758 38.3127C60.2165 42.2275 60.3944 43.7104 60.8096 43.0579C61.1062 42.5834 61.4028 41.753 61.4028 41.1598C61.4028 40.2108 64.25 31.1354 66.7412 24.3734C69.1732 17.6706 72.4949 14.2896 78.1299 12.9254C83.9429 11.4424 89.7559 13.993 93.2555 19.5094C95.5096 23.0684 95.8655 30.127 94.086 34.7537C92.3658 39.1431 91.9506 42.1089 91.9506 49.8793C92.0099 58.3022 93.0776 61.5053 98.2974 69.6316C100.492 73.0719 102.331 76.1564 102.331 76.4529C102.331 76.8088 102.509 76.9275 102.687 76.7495C102.865 76.5716 102.153 74.4362 101.085 72.0635C97.4077 63.4034 96.8738 61.1494 96.6959 52.5485C96.5773 48.1591 96.6959 43.9477 96.8738 43.2359C97.289 41.9309 97.3484 41.9309 100.492 43.9477C108.856 49.2268 113.067 56.582 113.186 66.1912C113.245 70.4027 112.118 77.6393 111.228 78.9442C110.991 79.2408 110.635 80.2492 110.398 81.1389C108.974 87.1298 100.967 100.001 94.5012 106.645C84.7733 116.729 76.647 120.703 63.7161 121.83C51.6156 122.897 39.8117 121.652 33.8208 118.686C30.2618 116.966 22.0762 109.314 18.8731 104.747C13.0601 96.6204 8.84867 86.2994 7.1285 75.9191C5.82354 68.4452 5.82354 55.3364 7.1285 47.5067C9.61978 32.1438 14.4837 22.4159 21.3644 19.2722C23.737 18.1452 27.5926 17.73 27.5926 18.5604C27.5926 18.857 27.1774 21.4076 26.7028 24.3734C25.7538 30.0677 25.5758 39.6176 26.3469 41.575C26.7621 42.4648 26.9994 41.9309 27.5333 39.2024C27.9485 37.245 28.7196 33.9233 29.3127 31.7879C30.3211 28.4069 30.7956 26.4494 32.0413 20.8144C33.2276 15.4166 34.5326 12.3322 36.4307 10.4341C37.9136 8.95117 41.7098 6.75647 43.8452 6.22263C46.6331 5.51083 51.9122 5.80741 54.878 6.75647ZM68.9952 14.0524C69.5884 14.2303 69.4698 14.7642 68.4614 16.0098C67.2158 17.6113 67.0971 17.6113 66.6819 16.603C66.4446 16.0098 66.2074 14.8828 66.2074 14.1117C66.1481 13.044 66.326 12.866 67.2158 13.2812C67.7496 13.5778 68.58 13.9337 68.9952 14.0524ZM30.7956 15.5946C30.2618 17.9079 29.6686 18.3231 28.7196 17.1961C28.0078 16.3657 28.1264 16.0691 29.3127 15.12C31.0922 13.6371 31.2702 13.6965 30.7956 15.5946ZM97.5263 38.372C98.3567 39.7362 98.2974 39.7956 95.6282 41.3378C94.6198 41.9309 94.5605 41.8123 94.9164 39.9735C95.6282 36.7111 96.2214 36.3552 97.5263 38.372ZM88.8068 117.737L88.5696 120.05L87.0867 118.805L85.6631 117.5L86.9087 116.491C88.8068 114.949 89.0441 115.127 88.8068 117.737ZM30.5584 120.11C30.5584 120.347 30.0245 121.059 29.3721 121.652C28.1857 122.72 28.1857 122.66 28.1857 120.525C28.1857 118.508 28.3044 118.389 29.3721 118.983C30.0245 119.339 30.5584 119.813 30.5584 120.11ZM86.9087 121.177C86.9087 125.863 82.5786 131.142 77.0029 133.218C70.2409 135.769 66.2667 136.362 56.0643 136.422C43.0148 136.481 38.2102 135.235 32.5158 130.015C30.5584 128.295 29.4907 125.211 30.2025 123.431C30.4991 122.601 30.7956 122.66 32.7531 123.669C37.4391 126.041 43.8452 126.99 55.1746 126.931C67.9869 126.931 75.9946 125.507 81.8669 122.245C85.9597 119.932 86.9087 119.754 86.9087 121.177Z" stroke="black"/>
<path d="M65.5063 12.2221C65.877 12.3704 67.3303 12.9339 70.1775 14.0016L69.5101 16.4484L65.9512 19.1176C65.8029 18.6727 65.5063 17.4271 65.5063 16.0035V12.2221Z" stroke="black"/>
<path d="M30.1391 14.0016L28.3596 15.3362L27.6923 16.4484L28.3596 17.783L30.1391 18.2279L31.4737 15.1138L31.0288 13.7792L30.1391 14.0016Z" stroke="black"/>
<path d="M28.3596 118.101L28.1371 119.214L27.9147 119.658V122.105C27.9147 122.283 28.063 122.773 28.1371 122.995C28.6562 122.698 29.7387 122.061 29.9166 121.883C30.1391 121.66 31.0288 120.993 31.0288 120.548C31.0288 120.192 30.8805 119.807 30.8064 119.658L29.6942 118.546L28.3596 118.101Z" stroke="black"/>
<path d="M96.2024 36.2452L95.5351 37.3573L94.4229 40.6939V42.0285L96.2024 41.5836L98.6492 40.249L97.537 38.2471L96.2024 36.2452Z" stroke="black"/>
<path d="M88.6396 114.765L86.4153 115.877L84.8582 117.434L85.9704 118.991L88.6396 120.771L89.3069 116.767L88.6396 114.765Z" stroke="black"/>
</svg>
