<svg width="108" height="175" viewBox="0 0 108 175" fill="none" xmlns="http://www.w3.org/2000/svg">
<path d="M48.1027 117.461C48.7047 118.398 48.8384 147.894 48.2365 148.831C47.5007 150.034 45.3604 149.834 44.8253 148.429C44.1565 146.891 43.8221 124.819 44.3571 120.538C44.7585 117.796 45.0929 117.127 46.2968 116.993C47.0325 116.859 47.9021 117.06 48.1027 117.461Z" fill="black"/>
<path d="M33.3879 124.083C33.5886 124.418 34.0568 126.558 34.4581 128.966C35.1269 133.046 36.0633 137.126 37.8692 143.48C38.5381 146.021 38.5381 146.556 37.5348 147.493C36.7322 148.295 36.1302 148.429 35.3276 147.894C33.1873 146.556 28.5722 127.16 29.843 124.685C30.5119 123.481 32.786 123.147 33.3879 124.083Z" fill="black"/>
<path d="M63.62 128.564C63.8876 129.099 63.8876 130.705 63.6869 132.042C63.4863 133.447 63.0181 137.594 62.5499 141.273C61.3459 151.305 61.4128 151.105 59.3394 150.837L57.5335 150.636L57.6673 145.286C57.7341 139.734 58.8712 131.708 59.9413 129.033C60.6102 127.36 63.0849 127.026 63.62 128.564Z" fill="black"/>
<path d="M42.5512 1.21518C46.2968 1.75026 48.5709 2.8873 52.9184 6.36533C56.8646 9.44204 59.4731 14.0571 60.4764 19.5417C61.6134 25.6282 63.2187 41.8144 63.2187 46.9646C63.2187 49.8406 63.4862 51.3121 63.8207 50.9108C64.8908 49.9075 73.9203 24.5581 73.9203 22.6853C73.9203 20.2105 77.0639 15.5286 79.8731 13.7227C88.8357 8.03746 100.942 15.9299 103.952 29.3738C105.223 34.9921 103.417 42.7508 96.6612 61.3449C93.8521 69.0367 89.9727 80.2734 89.9727 80.7416C89.9727 80.9422 90.976 81.6779 92.113 82.4137C107.363 91.3094 111.108 107.228 102.413 125.889C98.3334 134.651 94.7216 139.667 87.3642 146.958L80.9432 153.312L80.8764 156.991C80.8095 163.278 77.5321 167.625 70.2416 171.103C64.757 173.712 58.0685 174.581 46.8318 174.247C36.0633 173.846 31.9165 172.709 26.6326 168.695C21.2817 164.615 19.0745 159.398 21.148 155.519C21.7499 154.382 21.4824 153.78 19.2752 151.372C10.9814 142.61 7.03522 135.788 3.55719 124.217C0.413594 113.515 0.146055 96.4595 2.95523 86.9619C6.03194 76.8622 14.3257 66.7626 25.763 59.2714L27.4352 58.2013V42.8846C27.3683 34.4571 27.2345 23.6217 27.1007 18.8728C26.7663 10.5791 26.8332 10.044 28.4384 7.23484C31.1138 2.41911 36.1971 0.278786 42.5512 1.21518ZM35.0601 6.69975C31.3145 9.1745 30.9801 10.4453 31.4483 19.8761C32.3178 37.0656 32.3847 44.6236 31.7827 54.3888C31.047 65.4249 30.9801 66.0937 28.9735 73.3173C27.7027 78.133 24.5591 85.8248 24.1578 85.2897C24.024 85.2229 24.4922 80.8753 25.1611 75.7252C25.8968 70.575 26.365 65.8262 26.2981 65.2242C26.1644 64.4216 24.8935 65.1573 21.3486 68.234C13.3893 75.257 8.84112 82.213 6.56703 90.975C5.22933 96.0582 5.09556 109.837 6.29949 116.191C8.5067 127.896 13.6568 138.396 21.0142 146.423C28.706 154.716 34.1906 156.589 50.8449 156.656C59.54 156.656 62.3492 156.389 65.8941 155.385C79.4718 151.305 93.2501 137.193 99.7379 120.806C101.945 115.054 102.346 112.78 102.213 106.425C102.079 98.1986 98.8015 92.3796 91.578 87.3632L88.7019 85.4235L88.1668 87.8983C87.8993 89.3028 87.6986 93.1153 87.7655 96.4595C87.8324 101.275 88.3006 103.683 89.9727 108.499C92.7819 116.659 93.1163 118.532 91.1767 114.853C90.2403 113.181 88.5681 110.238 87.4311 108.365C81.7459 98.8005 82.1472 88.9684 89.0363 69.3042C99.4035 39.6741 99.5373 39.139 99.6042 33.922C99.6042 26.6984 97.2632 22.0833 91.6448 18.2709C86.9629 15.0604 81.1439 16.3981 79.4049 21.0132C79.0036 22.0164 78.0672 25.16 77.1977 27.9023C75.86 32.4505 64.222 63.7527 61.3459 70.3744C59.7407 74.2537 53.5872 84.7547 53.0522 84.7547C52.7846 84.7547 53.3197 82.7481 54.2561 80.2065C55.1925 77.7317 56.7977 72.7153 57.9348 69.1035L59.8744 62.415L59.2056 52.3823C58.0685 35.9285 56.5302 21.8158 55.46 17.9364C54.6574 15.1942 53.5872 13.522 50.9787 10.8466C45.561 5.42894 39.3407 3.8237 35.0601 6.69975ZM61.881 54.1882C61.881 54.9908 62.2154 56.1278 62.5498 56.6629C63.018 57.4655 63.3525 57.1311 64.1551 55.3252C65.0246 53.1849 65.0246 52.9174 64.0213 52.5829C62.4829 51.981 61.881 52.4492 61.881 54.1882ZM65.8941 160.067C62.6836 160.937 58.8712 161.271 51.1794 161.271C40.0764 161.204 33.1873 160.201 28.1709 157.659C25.1611 156.188 24.8935 156.255 24.8935 158.73C24.8935 162.743 31.5152 167.625 38.8056 169.03C46.2968 170.434 59.0718 170.1 65.0915 168.361C71.1111 166.689 76.5957 161.472 76.5957 157.526V155.653L73.3852 157.325C71.6462 158.194 68.302 159.465 65.8941 160.067Z" fill="black"/>
<path d="M62.2341 52.0995L65.3949 52.6263V53.1531C65.2193 53.6799 64.8681 54.8388 64.8681 55.2603C64.8681 55.6817 64.5169 56.4895 64.3413 56.8407L62.7609 57.8943L61.7073 56.3139V52.0995C61.7073 51.6781 62.0585 51.9239 62.2341 52.0995Z" fill="black"/>
<path d="M62.2341 52.0995L65.3949 52.6263V53.1531C65.2193 53.6799 64.8681 54.8388 64.8681 55.2603C64.8681 55.6817 64.5169 56.4895 64.3413 56.8407L62.7609 57.8943L61.7073 56.3139V52.0995C61.7073 51.6781 62.0585 51.9239 62.2341 52.0995Z" fill="black" fill-opacity="0.2"/>
<path d="M48.1027 117.461C48.7047 118.398 48.8384 147.894 48.2365 148.831C47.5007 150.034 45.3604 149.834 44.8253 148.429C44.1565 146.891 43.8221 124.819 44.3571 120.538C44.7585 117.796 45.0929 117.127 46.2968 116.993C47.0325 116.859 47.9021 117.06 48.1027 117.461Z" stroke="black"/>
<path d="M33.3879 124.083C33.5886 124.418 34.0568 126.558 34.4581 128.966C35.1269 133.046 36.0633 137.126 37.8692 143.48C38.5381 146.021 38.5381 146.556 37.5348 147.493C36.7322 148.295 36.1302 148.429 35.3276 147.894C33.1873 146.556 28.5722 127.16 29.843 124.685C30.5119 123.481 32.786 123.147 33.3879 124.083Z" stroke="black"/>
<path d="M63.62 128.564C63.8876 129.099 63.8876 130.705 63.6869 132.042C63.4863 133.447 63.0181 137.594 62.5499 141.273C61.3459 151.305 61.4128 151.105 59.3394 150.837L57.5335 150.636L57.6673 145.286C57.7341 139.734 58.8712 131.708 59.9413 129.033C60.6102 127.36 63.0849 127.026 63.62 128.564Z" stroke="black"/>
<path d="M42.5512 1.21518C46.2968 1.75026 48.5709 2.8873 52.9184 6.36533C56.8646 9.44204 59.4731 14.0571 60.4764 19.5417C61.6134 25.6282 63.2187 41.8144 63.2187 46.9646C63.2187 49.8406 63.4862 51.3121 63.8207 50.9108C64.8908 49.9075 73.9203 24.5581 73.9203 22.6853C73.9203 20.2105 77.0639 15.5286 79.8731 13.7227C88.8357 8.03746 100.942 15.9299 103.952 29.3738C105.223 34.9921 103.417 42.7508 96.6612 61.3449C93.8521 69.0367 89.9727 80.2734 89.9727 80.7416C89.9727 80.9422 90.976 81.6779 92.113 82.4137C107.363 91.3094 111.108 107.228 102.413 125.889C98.3334 134.651 94.7216 139.667 87.3642 146.958L80.9432 153.312L80.8764 156.991C80.8095 163.278 77.5321 167.625 70.2416 171.103C64.757 173.712 58.0685 174.581 46.8318 174.247C36.0633 173.846 31.9165 172.709 26.6326 168.695C21.2817 164.615 19.0745 159.398 21.148 155.519C21.7499 154.382 21.4824 153.78 19.2752 151.372C10.9814 142.61 7.03522 135.788 3.55719 124.217C0.413594 113.515 0.146055 96.4595 2.95523 86.9619C6.03194 76.8622 14.3257 66.7626 25.763 59.2714L27.4352 58.2013V42.8846C27.3683 34.4571 27.2345 23.6217 27.1007 18.8728C26.7663 10.5791 26.8332 10.044 28.4384 7.23484C31.1138 2.41911 36.1971 0.278786 42.5512 1.21518ZM35.0601 6.69975C31.3145 9.1745 30.9801 10.4453 31.4483 19.8761C32.3178 37.0656 32.3847 44.6236 31.7827 54.3888C31.047 65.4249 30.9801 66.0937 28.9735 73.3173C27.7027 78.133 24.5591 85.8248 24.1578 85.2897C24.024 85.2229 24.4922 80.8753 25.1611 75.7252C25.8968 70.575 26.365 65.8262 26.2981 65.2242C26.1644 64.4216 24.8935 65.1573 21.3486 68.234C13.3893 75.257 8.84112 82.213 6.56703 90.975C5.22933 96.0582 5.09556 109.837 6.29949 116.191C8.5067 127.896 13.6568 138.396 21.0142 146.423C28.706 154.716 34.1906 156.589 50.8449 156.656C59.54 156.656 62.3492 156.389 65.8941 155.385C79.4718 151.305 93.2501 137.193 99.7379 120.806C101.945 115.054 102.346 112.78 102.213 106.425C102.079 98.1986 98.8015 92.3796 91.578 87.3632L88.7019 85.4235L88.1668 87.8983C87.8993 89.3028 87.6986 93.1153 87.7655 96.4595C87.8324 101.275 88.3006 103.683 89.9727 108.499C92.7819 116.659 93.1163 118.532 91.1767 114.853C90.2403 113.181 88.5681 110.238 87.4311 108.365C81.7459 98.8005 82.1472 88.9684 89.0363 69.3042C99.4035 39.6741 99.5373 39.139 99.6042 33.922C99.6042 26.6984 97.2632 22.0833 91.6448 18.2709C86.9629 15.0604 81.1439 16.3981 79.4049 21.0132C79.0036 22.0164 78.0672 25.16 77.1977 27.9023C75.86 32.4505 64.222 63.7527 61.3459 70.3744C59.7407 74.2537 53.5872 84.7547 53.0522 84.7547C52.7846 84.7547 53.3197 82.7481 54.2561 80.2065C55.1925 77.7317 56.7977 72.7153 57.9348 69.1035L59.8744 62.415L59.2056 52.3823C58.0685 35.9285 56.5302 21.8158 55.46 17.9364C54.6574 15.1942 53.5872 13.522 50.9787 10.8466C45.561 5.42894 39.3407 3.8237 35.0601 6.69975ZM61.881 54.1882C61.881 54.9908 62.2154 56.1278 62.5498 56.6629C63.018 57.4655 63.3525 57.1311 64.1551 55.3252C65.0246 53.1849 65.0246 52.9174 64.0213 52.5829C62.4829 51.981 61.881 52.4492 61.881 54.1882ZM65.8941 160.067C62.6836 160.937 58.8712 161.271 51.1794 161.271C40.0764 161.204 33.1873 160.201 28.1709 157.659C25.1611 156.188 24.8935 156.255 24.8935 158.73C24.8935 162.743 31.5152 167.625 38.8056 169.03C46.2968 170.434 59.0718 170.1 65.0915 168.361C71.1111 166.689 76.5957 161.472 76.5957 157.526V155.653L73.3852 157.325C71.6462 158.194 68.302 159.465 65.8941 160.067Z" stroke="black"/>
<path d="M62.2341 52.0995L65.3949 52.6263V53.1531C65.2193 53.6799 64.8681 54.8388 64.8681 55.2603C64.8681 55.6817 64.5169 56.4895 64.3413 56.8407L62.7609 57.8943L61.7073 56.3139V52.0995C61.7073 51.6781 62.0585 51.9239 62.2341 52.0995Z" stroke="black"/>
</svg>
