<?xml version="1.0" standalone="no"?>
<!DOCTYPE svg PUBLIC "-//W3C//DTD SVG 20010904//EN"
 "http://www.w3.org/TR/2001/REC-SVG-20010904/DTD/svg10.dtd">
<svg version="1.0" xmlns="http://www.w3.org/2000/svg"
 width="300.000000pt" height="300.000000pt" viewBox="0 0 300.000000 300.000000"
 preserveAspectRatio="xMidYMid meet">
<metadata>
Created by potrace 1.10, written by Peter Selinger 2001-2011
</metadata>
<g transform="translate(0.000000,300.000000) scale(0.100000,-0.100000)"
fill="#000000" stroke="none">
<path d="M1669 2839 c-56 -8 -90 -25 -155 -77 -59 -46 -98 -115 -113 -197 -17
-91 -41 -333 -41 -410 0 -43 -4 -65 -9 -59 -16 15 -151 394 -151 422 0 37 -47
107 -89 134 -134 85 -315 -33 -360 -234 -19 -84 8 -200 109 -478 42 -115 100
-283 100 -290 0 -3 -15 -14 -32 -25 -228 -133 -284 -371 -154 -650 61 -131
115 -206 225 -315 l96 -95 1 -55 c1 -94 50 -159 159 -211 82 -39 182 -52 350
-47 161 6 223 23 302 83 80 61 113 139 82 197 -9 17 -5 26 28 62 124 131 183
233 235 406 47 160 51 415 9 557 -46 151 -170 302 -341 414 l-25 16 0 229 c1
126 3 288 5 359 5 124 4 132 -20 174 -40 72 -116 104 -211 90z m112 -82 c56
-37 61 -56 54 -197 -13 -257 -14 -370 -5 -516 11 -165 12 -175 42 -283 19 -72
66 -187 72 -179 2 1 -5 66 -15 143 -11 77 -18 148 -17 157 2 12 21 1 74 -45
119 -105 187 -209 221 -340 20 -76 22 -282 4 -377 -33 -175 -110 -332 -220
-452 -115 -124 -197 -152 -446 -153 -130 0 -172 4 -225 19 -203 61 -409 272
-506 517 -33 86 -39 120 -37 215 2 123 51 210 159 285 l43 29 8 -37 c4 -21 7
-78 6 -128 -1 -72 -8 -108 -33 -180 -42 -122 -47 -150 -18 -95 14 25 39 69 56
97 85 143 79 290 -24 584 -155 443 -157 451 -158 529 0 108 35 177 119 234 70
48 157 28 183 -41 6 -15 20 -62 33 -103 20 -68 194 -536 237 -635 24 -58 116
-215 124 -215 4 0 -4 30 -18 68 -14 37 -38 112 -55 166 l-29 100 10 150 c17
246 40 457 56 515 12 41 28 66 67 106 81 81 174 105 238 62z m-401 -710 c0
-12 -5 -29 -10 -37 -7 -12 -12 -7 -24 20 -13 32 -13 36 2 41 23 9 32 2 32 -24z
m-60 -1583 c48 -13 105 -18 220 -18 166 1 269 16 344 54 45 22 49 21 49 -16 0
-60 -99 -133 -208 -154 -112 -21 -303 -16 -393 10 -90 25 -172 103 -172 162
l0 28 48 -25 c26 -13 76 -32 112 -41z"/>
<path d="M1586 1101 c-9 -14 -11 -455 -2 -469 11 -18 43 -15 51 6 10 23 15
353 7 417 -6 41 -11 51 -29 53 -11 2 -24 -1 -27 -7z"/>
<path d="M1806 1002 c-3 -5 -10 -37 -16 -73 -10 -61 -24 -122 -51 -217 -10
-38 -10 -46 5 -60 12 -12 21 -14 33 -6 32 20 101 310 82 347 -10 18 -44 23
-53 9z"/>
<path d="M1354 935 c-4 -8 -4 -32 -1 -52 3 -21 10 -83 17 -138 18 -150 17
-147 48 -143 l27 3 -2 80 c-1 83 -18 203 -34 243 -10 25 -47 30 -55 7z"/>
</g>
</svg>
